#!OML:ASF F:\VICON\USERDATA\INSTALL\rory3\rory3.ASF
:FULLY-SPECIFIED
:DEGREES
979
root -9.00935 17.9926 10.2907 -0.872417 -43.3907 3.10775
lowerback 17.9905 0.77427 0.567354
upperback 1.79117 1.16826 1.01357
thorax -8.16816 0.5378 0.484728
lowerneck -18.8829 -5.10164 -10.6563
upperneck 29.4019 -5.76041 5.26933
head 13.59 -3.07952 2.88574
rclavicle -5.74488e-014 3.18055e-014
rhumerus -25.5972 13.0723 -83.9461
rradius 42.1368
rwrist 3.35921
rhand -20.9332 11.7841
rfingers 7.12502
rthumb 5.43887 -18.1261
lclavicle -5.74488e-014 3.18055e-014
lhumerus -29.0138 -22.2256 100.013
lradius 43.7131
lwrist -8.14398
lhand -20.6597 23.1348
lfingers 7.12502
lthumb 5.7029 53.0381
rfemur -19.7096 -10.8411 21.7729
rtibia 29.863
rfoot -8.31023 -13.8756
rtoes 23.0644
lfemur -14.1064 6.07709 -20.1392
ltibia 35.9786
lfoot -13.7242 -0.754187
ltoes -14.8329
980
root -8.98825 17.9958 10.2745 -0.934314 -43.3277 2.93885
lowerback 17.7466 0.796482 0.751641
upperback 1.87671 1.22035 0.912623
thorax -7.93502 0.555923 0.261886
lowerneck -18.9442 -5.16022 -10.5829
upperneck 28.837 -5.90475 5.51603
head 13.3833 -3.08738 2.93635
rclavicle -1.55052e-014 1.59028e-015
rhumerus -25.5554 11.7554 -83.7346
rradius 41.2719
rwrist 3.50868
rhand -21.1008 11.5003
rfingers 7.12502
rthumb 5.27704 -18.414
lclavicle -1.55052e-014 1.59028e-015
lhumerus -28.4801 -21.1793 99.2858
lradius 43.3894
lwrist -8.44374
lhand -20.8126 23.2245
lfingers 7.12502
lthumb 5.55531 53.1317
rfemur -19.4569 -10.8607 21.8535
rtibia 29.5708
rfoot -8.06567 -13.8488
rtoes 23.1671
lfemur -13.525 6.3715 -19.9888
ltibia 36.7883
lfoot -13.0522 -1.32887
ltoes -14.6245
981
root -8.96834 18.0086 10.262 -1.05339 -43.335 2.77287
lowerback 17.5388 0.868865 1.1385
upperback 1.93657 1.3691 0.705814
thorax -7.74129 0.613396 -0.212145
lowerneck -19.0214 -5.25478 -10.5561
upperneck 28.4262 -6.11461 5.8319
head 13.2585 -3.12385 3.01231
rclavicle 7.17613e-014 7.95139e-016
rhumerus -25.4983 9.83225 -83.4983
rradius 40.1205
rwrist 3.98157
rhand -20.6738 11.4766
rfingers 7.12502
rthumb 5.68929 -18.4271
lclavicle 7.17613e-014 7.95139e-016
lhumerus -28.1198 -20.4829 98.602
lradius 43.1689
lwrist -8.21336
lhand -20.7009 23.6824
lfingers 7.12502
lthumb 5.6631 53.5867
rfemur -19.0785 -10.9028 21.9268
rtibia 29.1857
rfoot -7.82387 -13.8016
rtoes 23.2976
lfemur -12.8356 6.79224 -19.8729
ltibia 37.6008
lfoot -12.5256 -1.52948
ltoes -15.8375
982
root -8.94801 18.0177 10.2498 -1.17735 -43.3533 2.54492
lowerback 17.431 0.910675 1.36267
upperback 1.96992 1.45913 0.641278
thorax -7.63747 0.649906 -0.427686
lowerneck -19.1493 -5.27005 -10.4739
upperneck 28.0835 -6.15321 5.92533
head 13.1464 -3.11022 3.02112
rclavicle -4.62174e-014 9.54166e-015
rhumerus -25.4958 8.1548 -83.1717
rradius 38.9975
rwrist 4.35776
rhand -20.2993 11.4325
rfingers 7.12502
rthumb 6.05084 -18.4611
lclavicle -4.62174e-014 9.54166e-015
lhumerus -27.8415 -19.3935 98.0083
lradius 42.9749
lwrist -7.71495
lhand -20.9843 23.8652
lfingers 7.12502
lthumb 5.38949 53.7766
rfemur -18.6166 -10.9518 22.0471
rtibia 28.7087
rfoot -7.52968 -13.7591
rtoes 23.2881
lfemur -12.1315 7.17517 -19.6768
ltibia 38.4199
lfoot -12.002 -1.71324
ltoes -16.7543
983
root -8.92514 18.0229 10.2361 -1.27017 -43.3293 2.31447
lowerback 17.3377 0.930519 1.39265
upperback 1.90411 1.49638 0.695419
thorax -7.65767 0.668098 -0.394442
lowerneck -19.0337 -5.23122 -10.4218
upperneck 27.7967 -6.12205 5.96643
head 12.9997 -3.08343 3.03078
rclavicle 1.00386e-014 -6.36111e-015
rhumerus -25.6282 6.61857 -82.76
rradius 37.7685
rwrist 4.63702
rhand -20.1813 11.6818
rfingers 7.12502
rthumb 6.1648 -18.2085
lclavicle 1.00386e-014 -6.36111e-015
lhumerus -27.7269 -17.7891 97.5591
lradius 42.6106
lwrist -7.85713
lhand -21.6801 23.7502
lfingers 7.12502
lthumb 4.71767 53.6777
rfemur -18.207 -11.0437 22.177
rtibia 28.2217
rfoot -7.17632 -13.7305
rtoes 23.0623
lfemur -11.466 7.41022 -19.4612
ltibia 39.1606
lfoot -11.4101 -1.97404
ltoes -17.071
984
root -8.89878 18.0266 10.2207 -1.37449 -43.2591 2.17692
lowerback 17.2541 0.936448 1.37446
upperback 1.79747 1.50516 0.716658
thorax -7.72803 0.673304 -0.363062
lowerneck -18.9725 -5.21043 -10.3678
upperneck 27.5824 -6.11557 6.00598
head 12.8974 -3.06773 3.03553
rclavicle 2.82274e-014 -2.06736e-014
rhumerus -25.7311 4.9083 -82.3438
rradius 36.4096
rwrist 4.88934
rhand -20.1303 11.6667
rfingers 7.12502
rthumb 6.21403 -18.2222
lclavicle 2.82274e-014 -2.06736e-014
lhumerus -27.6978 -16.2132 97.1356
lradius 42.1969
lwrist -8.29951
lhand -21.7111 23.6922
lfingers 7.12502
lthumb 4.68778 53.6203
rfemur -17.8872 -11.0199 22.2214
rtibia 27.8197
rfoot -6.89088 -13.8273
rtoes 23.1395
lfemur -10.8232 7.54763 -19.3321
ltibia 39.7353
lfoot -10.9453 -2.09235
ltoes -16.9175
985
root -8.87265 18.0288 10.203 -1.48689 -43.1173 2.1648
lowerback 17.1051 0.899675 1.23859
upperback 1.71792 1.43133 0.708924
thorax -7.7362 0.642654 -0.275251
lowerneck -19.063 -5.18643 -10.36
upperneck 27.3827 -6.09697 6.12749
head 12.8364 -3.03793 3.08062
rclavicle -1.55052e-014 -6.36111e-015
rhumerus -25.789 3.30879 -81.9366
rradius 35.1828
rwrist 5.04464
rhand -20.2433 11.1392
rfingers 7.12502
rthumb 6.10491 -18.7529
lclavicle -1.55052e-014 -6.36111e-015
lhumerus -27.5806 -14.8308 96.6656
lradius 41.7926
lwrist -8.33172
lhand -21.9721 23.9346
lfingers 7.12502
lthumb 4.43567 53.8681
rfemur -17.703 -11.0246 22.1849
rtibia 27.5075
rfoot -6.59267 -13.9597
rtoes 22.9136
lfemur -10.2264 7.55159 -19.3152
ltibia 40.1434
lfoot -10.485 -2.05007
ltoes -15.4917
986
root -8.84834 18.0313 10.1875 -1.6456 -42.9403 2.24781
lowerback 16.8492 0.843616 0.988187
upperback 1.65654 1.30989 0.709449
thorax -7.66853 0.593604 -0.101006
lowerneck -19.0939 -5.12252 -10.3758
upperneck 27.1891 -6.02673 6.26901
head 12.762 -2.98689 3.14731
rclavicle -7.38485e-014 2.06736e-014
rhumerus -25.8436 1.78831 -81.494
rradius 33.9396
rwrist 5.16538
rhand -20.416 10.7021
rfingers 7.12502
rthumb 5.93818 -19.1947
lclavicle -7.38485e-014 2.06736e-014
lhumerus -27.4457 -13.5917 96.1958
lradius 41.4357
lwrist -8.04527
lhand -22.722 24.5995
lfingers 7.12502
lthumb 3.71153 54.547
rfemur -17.5479 -11.0469 22.0674
rtibia 27.2566
rfoot -6.32916 -14.1232
rtoes 22.7197
lfemur -9.5649 7.44333 -19.3939
ltibia 40.3952
lfoot -10.1077 -1.87019
ltoes -13.9794
987
root -8.82257 18.0333 10.1719 -1.81926 -42.8134 2.23169
lowerback 16.6514 0.813265 0.817556
upperback 1.65698 1.2373 0.717665
thorax -7.56319 0.565231 0.0240484
lowerneck -19.3106 -5.10559 -10.2834
upperneck 27.0975 -6.00502 6.28349
head 12.7638 -2.95973 3.13695
rclavicle -1.39149e-014 1.27222e-014
rhumerus -25.704 -0.0845933 -81.0095
rradius 32.4592
rwrist 5.32106
rhand -20.3737 10.7197
rfingers 7.12502
rthumb 5.979 -19.1759
lclavicle -1.39149e-014 1.27222e-014
lhumerus -27.2094 -12.6987 95.7111
lradius 41.054
lwrist -7.43769
lhand -22.8888 25.5917
lfingers 7.12502
lthumb 3.55052 55.5419
rfemur -17.2839 -10.6513 21.9824
rtibia 27.0301
rfoot -6.23863 -14.6328
rtoes 23.1485
lfemur -8.75496 7.34704 -19.3717
ltibia 40.4967
lfoot -9.87769 -1.65259
ltoes -12.3134
988
root -8.79396 18.0343 10.1573 -1.9729 -42.7048 2.21528
lowerback 16.4683 0.819762 0.723862
upperback 1.62219 1.22631 0.689835
thorax -7.50096 0.56346 0.0521664
lowerneck -19.5018 -5.16378 -10.2417
upperneck 27.0769 -6.07918 6.28454
head 12.8008 -2.98337 3.11449
rclavicle 8.10048e-014 -2.38542e-015
rhumerus -25.6516 -2.39952 -80.4134
rradius 30.9727
rwrist 5.70591
rhand -20.3264 10.8571
rfingers 7.12502
rthumb 6.02467 -19.0372
lclavicle 8.10048e-014 -2.38542e-015
lhumerus -27.0165 -11.909 95.283
lradius 40.6172
lwrist -6.65032
lhand -22.4732 26.2719
lfingers 7.12502
lthumb 3.95182 56.215
rfemur -17.0595 -10.2383 21.9055
rtibia 26.8151
rfoot -6.09867 -15.1428
rtoes 23.4268
lfemur -7.95421 7.16875 -19.3845
ltibia 40.4459
lfoot -9.6259 -1.32633
ltoes -11.3115
989
root -8.76364 18.0357 10.1449 -2.14818 -42.5189 2.23359
lowerback 16.2722 0.776127 0.661556
upperback 1.63653 1.14995 0.613797
thorax -7.37686 0.528344 0.0261462
lowerneck -19.8416 -5.21206 -10.2217
upperneck 27.12 -6.15981 6.41588
head 12.9004 -2.99271 3.14508
rclavicle -1.78906e-014 -5.96354e-015
rhumerus -25.616 -4.64916 -79.8476
rradius 29.6563
rwrist 6.01221
rhand -20.6818 10.2494
rfingers 7.12502
rthumb 5.68161 -19.6544
lclavicle -1.78906e-014 -5.96354e-015
lhumerus -26.6987 -10.9935 94.8144
lradius 40.0592
lwrist -5.90908
lhand -22.6544 26.5095
lfingers 7.12502
lthumb 3.77683 56.4557
rfemur -16.8394 -10.1555 21.7967
rtibia 26.5906
rfoot -5.86618 -15.4069
rtoes 23.3575
lfemur -7.13041 6.89587 -19.4428
ltibia 40.2298
lfoot -9.32083 -1.10161
ltoes -10.183
